<svg width="300" height="300" viewBox="0 0 31 26" fill="none" xmlns="http://www.w3.org/2000/svg">
<path d="M9.53592 2.83628C10.4412 1.60986 11.7308 0.36575 13.3719 0.439082C14.9599 0.449196 16.5581 0.348049 18.1436 0.494713C20.0578 0.762754 21.484 2.29514 22.3285 3.94131C20.7835 4.2751 19.1652 4.33326 17.6884 4.93508C16.3381 5.52427 15.0737 6.39919 14.2519 7.64331C13.3669 7.64836 12.4616 7.64583 11.6145 7.93158C10.1175 8.38674 8.84306 9.39063 7.31826 9.75729C6.82011 9.53729 6.45345 9.115 6.05139 8.76351C7.14884 6.75321 8.21595 4.71256 9.53592 2.83628Z" fill="#34C4D3"/>
<path d="M17.6882 4.93506C19.1649 4.33323 20.7833 4.27507 22.3283 3.94128C23.6508 5.90102 24.7735 7.98971 25.8609 10.0885C25.0795 10.6903 24.1768 9.96208 23.3473 10.3085C22.1058 10.7536 20.8414 11.1556 19.6378 11.6968C19.2028 11.8662 19.0739 12.3542 18.8615 12.7234C18.3583 12.6652 17.8601 12.597 17.3645 12.5338C17.8348 12.5161 18.3077 12.4984 18.7856 12.4781C17.8702 10.5563 16.879 8.66487 15.7967 6.8341C15.731 6.82904 15.5944 6.8164 15.5287 6.81134C14.2112 8.93291 12.9595 11.1218 11.7205 13.2696C11.5586 13.1128 11.3993 12.9586 11.2425 12.8043C11.2071 13.0774 11.1743 13.353 11.1439 13.6287C10.8202 13.5579 10.5016 13.4871 10.1805 13.4213C8.90097 14.5592 7.04239 15.2976 5.36082 14.6553C5.44679 14.8905 5.53529 15.1257 5.6238 15.3608C4.85255 15.6289 4.10406 15.9551 3.39097 16.3546C3.07994 16.0663 2.76639 15.7781 2.45789 15.4898C3.66154 13.2519 4.78933 10.971 6.05115 8.76349C6.45321 9.11497 6.81987 9.53726 7.31802 9.75726C8.84281 9.3906 10.1173 8.38671 11.6143 7.93155C12.4614 7.64581 13.3666 7.64834 14.2517 7.64328C15.0735 6.39917 16.3378 5.52424 17.6882 4.93506Z" fill="#2BB5CF"/>
<path d="M23.3475 10.3085C24.1769 9.96207 25.0797 10.6903 25.861 10.0885C26.8801 11.8131 27.7727 13.6084 28.7741 15.3431C29.1129 15.9525 29.4872 16.5543 29.6768 17.2346C29.8614 17.9527 30.0207 18.6784 30.2078 19.3991C29.8816 18.9794 29.558 18.5621 29.2394 18.1449C28.6653 18.4433 28.0736 18.7214 27.5654 19.1235C27.1228 19.4522 27.0723 20.0363 26.9408 20.5294C26.0659 19.7506 25.196 18.8706 24.053 18.5141C23.0087 18.3118 21.939 18.4534 20.8821 18.418C21.4308 18.1677 21.9846 17.9249 22.5383 17.6796C19.5267 17.3155 16.4215 16.835 13.4452 17.6897C13.6298 17.1081 13.7851 16.5271 13.9798 15.9506C14.6599 14.681 15.784 12.6228 15.9587 12.5184C16.1335 12.414 16.8589 12.4731 17.3576 12.4731C17.8564 12.4731 18.0831 12.4731 18.7859 12.4731C18.9983 12.1039 19.203 11.8662 19.6379 11.6967C20.8416 11.1556 22.1059 10.7535 23.3475 10.3085Z" fill="#229EC5"/>
<path d="M11.2426 12.8041C11.3994 12.9583 11.5587 13.1126 11.7206 13.2694C10.3879 15.5755 7.36762 20.6928 5.91362 22.9256C4.69732 24.7842 1.41815 24.3281 0.244836 22.4442C-0.733217 20.4163 1.46579 17.1972 2.45798 15.4895C2.76648 15.7778 3.08004 16.0661 3.39107 16.3544C4.10415 15.9548 4.85265 15.6286 5.6239 15.3606C5.53539 15.1254 5.44689 14.8902 5.36091 14.6551C7.04249 15.2974 8.90107 14.559 10.1806 13.4211C10.5017 13.4868 10.8203 13.5576 11.144 13.6284C11.1744 13.3528 11.2072 13.0772 11.2426 12.8041Z" fill="#25A9CB"/>
<path d="M11.6621 19.8819C12.4636 18.5821 13.1179 17.2343 13.996 15.9447C13.8013 16.5212 13.6294 17.1079 13.4448 17.6895C16.421 16.8348 19.5263 17.3152 22.5379 17.6794C21.9841 17.9247 21.4304 18.1674 20.8816 18.4178C21.9386 18.4532 23.0083 18.3115 24.0526 18.5138C25.1956 18.8704 26.0654 19.7504 26.9404 20.5292C27.0719 20.0361 27.1224 19.452 27.565 19.1233C28.0732 18.7212 28.6649 18.443 29.2389 18.1447C29.5576 18.5619 29.8812 18.9791 30.2074 19.3989C30.0203 18.6782 29.7007 17.4851 29.5161 16.7669C30.2074 17.7694 31.3984 20.9464 30.8674 22.8809C30.6424 23.7255 30.1164 24.5068 29.3401 24.9291C28.3337 25.5259 27.1174 25.3489 26.0073 25.3135C26.4296 24.3071 27.1174 23.3108 26.9606 22.1653C26.7406 20.2637 24.8593 18.8577 23.0057 18.8451C21.0536 18.7237 19.3442 19.8035 17.607 20.514C14.7723 21.7253 11.9958 23.0832 9.10303 24.1452C9.85152 22.6634 10.8276 21.3131 11.6621 19.8819Z" fill="#1F8EBC"/>
</svg>
